<svg width="16" height="15" viewBox="0 0 16 15" fill="none" xmlns="http://www.w3.org/2000/svg">
<path fill-rule="evenodd" clip-rule="evenodd" d="M3.53573 0C3.71333 0 3.88365 0.0686351 4.00923 0.190806C4.13481 0.312978 4.20537 0.478678 4.20537 0.651454V2.10029C6.73012 1.88195 9.26981 1.88195 11.7946 2.10029V0.651454C11.7946 0.478678 11.8651 0.312978 11.9907 0.190806C12.1163 0.0686351 12.2866 0 12.4642 0C12.6418 0 12.8121 0.0686351 12.9377 0.190806C13.0633 0.312978 13.1338 0.478678 13.1338 0.651454V2.22884C13.7852 2.3187 14.3885 2.61348 14.8515 3.06815C15.3145 3.52283 15.6118 4.11243 15.6981 4.74693L15.7758 5.31413C16.1008 7.69932 16.0722 10.1175 15.6918 12.4958C15.6002 13.0683 15.3156 13.595 14.8828 13.993C14.45 14.3911 13.8935 14.6381 13.3008 14.6951L12.2356 14.7976C9.41867 15.0675 6.58126 15.0675 3.7643 14.7976L2.69913 14.6951C2.10642 14.6381 1.54996 14.3911 1.11717 13.993C0.684377 13.595 0.399781 13.0683 0.308086 12.4958C-0.0723448 10.1181 -0.100608 7.69962 0.224158 5.31413L0.301836 4.74693C0.388106 4.11243 0.685448 3.52283 1.14846 3.06815C1.61148 2.61348 2.21472 2.3187 2.86609 2.22884V0.651454C2.86609 0.478678 2.93664 0.312978 3.06223 0.190806C3.18781 0.0686351 3.35813 0 3.53573 0ZM3.93305 3.4336C6.63837 3.17389 9.36156 3.17389 12.0669 3.4336L12.8749 3.51177C13.649 3.5856 14.2678 4.16844 14.3704 4.91805L14.4481 5.48524C14.4749 5.68329 14.4993 5.88162 14.5213 6.08024H1.47861C1.50063 5.88162 1.52504 5.68329 1.55182 5.48524L1.6295 4.91805C1.67905 4.55376 1.85378 4.21648 2.12528 3.96102C2.39679 3.70555 2.74912 3.54692 3.12502 3.5109L3.93305 3.4336ZM1.37236 7.38315C1.28471 9.02478 1.37147 10.6708 1.63129 12.2951C1.6773 12.5822 1.82003 12.8464 2.03706 13.046C2.25409 13.2457 2.53314 13.3696 2.83038 13.3982L3.89555 13.5007C6.62498 13.7631 9.37495 13.7631 12.1044 13.5007L13.1696 13.3982C13.4668 13.3696 13.7458 13.2457 13.9629 13.046C14.1799 12.8464 14.3226 12.5822 14.3686 12.2951C14.6294 10.6691 14.7151 9.02308 14.6276 7.38315H1.37236Z" fill="black" fill-opacity="0.6"/>
</svg>
