<svg width="270" height="18" viewBox="0 0 270 18" fill="none" xmlns="http://www.w3.org/2000/svg">
<path d="M-1.51396e-05 7.18404C-1.51396e-05 6.07471 0.239985 5.08804 0.719985 4.22404C1.19998 3.34937 1.86665 2.67204 2.71999 2.19204C3.58399 1.70137 4.55999 1.45604 5.64798 1.45604C6.98132 1.45604 8.12265 1.80804 9.07199 2.51204C10.0213 3.21604 10.656 4.17604 10.976 5.39204H7.96799C7.74399 4.92271 7.42399 4.56537 7.00799 4.32004C6.60265 4.07471 6.13865 3.95204 5.61598 3.95204C4.77332 3.95204 4.09065 4.24537 3.56799 4.83204C3.04532 5.41871 2.78399 6.20271 2.78399 7.18404C2.78399 8.16537 3.04532 8.94937 3.56799 9.53604C4.09065 10.1227 4.77332 10.416 5.61598 10.416C6.13865 10.416 6.60265 10.2934 7.00799 10.048C7.42399 9.80271 7.74399 9.44537 7.96799 8.97604H10.976C10.656 10.192 10.0213 11.152 9.07199 11.856C8.12265 12.5494 6.98132 12.896 5.64798 12.896C4.55999 12.896 3.58399 12.656 2.71999 12.176C1.86665 11.6854 1.19998 11.008 0.719985 10.144C0.239985 9.28004 -1.51396e-05 8.29337 -1.51396e-05 7.18404ZM16.7155 12.944C15.8408 12.944 15.0515 12.7574 14.3475 12.384C13.6542 12.0107 13.1048 11.4774 12.6995 10.784C12.3048 10.0907 12.1075 9.28004 12.1075 8.35204C12.1075 7.43471 12.3102 6.62937 12.7155 5.93604C13.1208 5.23204 13.6755 4.69337 14.3795 4.32004C15.0835 3.94671 15.8728 3.76004 16.7475 3.76004C17.6222 3.76004 18.4115 3.94671 19.1155 4.32004C19.8195 4.69337 20.3742 5.23204 20.7795 5.93604C21.1848 6.62937 21.3875 7.43471 21.3875 8.35204C21.3875 9.26937 21.1795 10.08 20.7635 10.784C20.3582 11.4774 19.7982 12.0107 19.0835 12.384C18.3795 12.7574 17.5902 12.944 16.7155 12.944ZM16.7155 10.576C17.2382 10.576 17.6808 10.384 18.0435 10C18.4168 9.61604 18.6035 9.06671 18.6035 8.35204C18.6035 7.63737 18.4222 7.08804 18.0595 6.70404C17.7075 6.32004 17.2702 6.12804 16.7475 6.12804C16.2142 6.12804 15.7715 6.32004 15.4195 6.70404C15.0675 7.07737 14.8915 7.62671 14.8915 8.35204C14.8915 9.06671 15.0622 9.61604 15.4035 10C15.7555 10.384 16.1928 10.576 16.7155 10.576ZM22.295 8.33604C22.295 7.41871 22.4657 6.61337 22.807 5.92004C23.159 5.22671 23.6337 4.69337 24.231 4.32004C24.8283 3.94671 25.495 3.76004 26.231 3.76004C26.8177 3.76004 27.351 3.88271 27.831 4.12804C28.3217 4.37337 28.7057 4.70404 28.983 5.12004V0.97604H31.719V12.816H28.983V11.536C28.727 11.9627 28.359 12.304 27.879 12.56C27.4097 12.816 26.8603 12.944 26.231 12.944C25.495 12.944 24.8283 12.7574 24.231 12.384C23.6337 12 23.159 11.4614 22.807 10.768C22.4657 10.064 22.295 9.25337 22.295 8.33604ZM28.983 8.35204C28.983 7.66937 28.791 7.13071 28.407 6.73604C28.0337 6.34137 27.575 6.14404 27.031 6.14404C26.487 6.14404 26.023 6.34137 25.639 6.73604C25.2657 7.12004 25.079 7.65337 25.079 8.33604C25.079 9.01871 25.2657 9.56271 25.639 9.96804C26.023 10.3627 26.487 10.56 27.031 10.56C27.575 10.56 28.0337 10.3627 28.407 9.96804C28.791 9.57337 28.983 9.03471 28.983 8.35204ZM35.0744 2.96004C34.5944 2.96004 34.1997 2.82137 33.8904 2.54404C33.5917 2.25604 33.4424 1.90404 33.4424 1.48804C33.4424 1.06137 33.5917 0.709373 33.8904 0.432039C34.1997 0.144039 34.5944 3.91006e-05 35.0744 3.91006e-05C35.5437 3.91006e-05 35.9277 0.144039 36.2264 0.432039C36.5357 0.709373 36.6904 1.06137 36.6904 1.48804C36.6904 1.90404 36.5357 2.25604 36.2264 2.54404C35.9277 2.82137 35.5437 2.96004 35.0744 2.96004ZM36.4344 3.88804V12.816H33.6984V3.88804H36.4344ZM43.8571 3.79204C44.9024 3.79204 45.7344 4.13337 46.3531 4.81604C46.9824 5.48804 47.2971 6.41604 47.2971 7.60004V12.816H44.5771V7.96804C44.5771 7.37071 44.4224 6.90671 44.1131 6.57604C43.8038 6.24537 43.3878 6.08004 42.8651 6.08004C42.3424 6.08004 41.9264 6.24537 41.6171 6.57604C41.3078 6.90671 41.1531 7.37071 41.1531 7.96804V12.816H38.4171V3.88804H41.1531V5.07204C41.4304 4.67737 41.8038 4.36804 42.2731 4.14404C42.7424 3.90937 43.2704 3.79204 43.8571 3.79204ZM52.5904 3.76004C53.2197 3.76004 53.769 3.88804 54.2384 4.14404C54.7184 4.40004 55.0864 4.73604 55.3424 5.15204V3.88804H58.0784V12.8C58.0784 13.6214 57.913 14.3627 57.5824 15.024C57.2624 15.696 56.7664 16.2294 56.0944 16.624C55.433 17.0187 54.6064 17.216 53.6144 17.216C52.2917 17.216 51.2197 16.9014 50.3984 16.272C49.577 15.6534 49.1077 14.8107 48.9904 13.744H51.6944C51.7797 14.0854 51.9824 14.352 52.3024 14.544C52.6224 14.7467 53.017 14.848 53.4864 14.848C54.0517 14.848 54.4997 14.6827 54.8304 14.352C55.1717 14.032 55.3424 13.5147 55.3424 12.8V11.536C55.0757 11.952 54.7077 12.2934 54.2384 12.56C53.769 12.816 53.2197 12.944 52.5904 12.944C51.8544 12.944 51.1877 12.7574 50.5904 12.384C49.993 12 49.5184 11.4614 49.1664 10.768C48.825 10.064 48.6544 9.25337 48.6544 8.33604C48.6544 7.41871 48.825 6.61337 49.1664 5.92004C49.5184 5.22671 49.993 4.69337 50.5904 4.32004C51.1877 3.94671 51.8544 3.76004 52.5904 3.76004ZM55.3424 8.35204C55.3424 7.66937 55.1504 7.13071 54.7664 6.73604C54.393 6.34137 53.9344 6.14404 53.3904 6.14404C52.8464 6.14404 52.3824 6.34137 51.9984 6.73604C51.625 7.12004 51.4384 7.65337 51.4384 8.33604C51.4384 9.01871 51.625 9.56271 51.9984 9.96804C52.3824 10.3627 52.8464 10.56 53.3904 10.56C53.9344 10.56 54.393 10.3627 54.7664 9.96804C55.1504 9.57337 55.3424 9.03471 55.3424 8.35204ZM68.6177 5.20004C68.6177 5.85071 68.4684 6.44804 68.1697 6.99204C67.8711 7.52537 67.4124 7.95737 66.7937 8.28804C66.1751 8.61871 65.4071 8.78404 64.4897 8.78404H62.7937V12.816H60.0577V1.58404H64.4897C65.3857 1.58404 66.1431 1.73871 66.7617 2.04804C67.3804 2.35737 67.8444 2.78404 68.1537 3.32804C68.4631 3.87204 68.6177 4.49604 68.6177 5.20004ZM64.2817 6.60804C64.8044 6.60804 65.1937 6.48537 65.4497 6.24004C65.7057 5.99471 65.8337 5.64804 65.8337 5.20004C65.8337 4.75204 65.7057 4.40537 65.4497 4.16004C65.1937 3.91471 64.8044 3.79204 64.2817 3.79204H62.7937V6.60804H64.2817ZM72.7781 0.97604V12.816H70.0421V0.97604H72.7781ZM74.2169 8.33604C74.2169 7.41871 74.3875 6.61337 74.7289 5.92004C75.0809 5.22671 75.5555 4.69337 76.1529 4.32004C76.7502 3.94671 77.4169 3.76004 78.1529 3.76004C78.7822 3.76004 79.3315 3.88804 79.8009 4.14404C80.2809 4.40004 80.6489 4.73604 80.9049 5.15204V3.88804H83.6409V12.816H80.9049V11.552C80.6382 11.968 80.2649 12.304 79.7849 12.56C79.3155 12.816 78.7662 12.944 78.1369 12.944C77.4115 12.944 76.7502 12.7574 76.1529 12.384C75.5555 12 75.0809 11.4614 74.7289 10.768C74.3875 10.064 74.2169 9.25337 74.2169 8.33604ZM80.9049 8.35204C80.9049 7.66937 80.7129 7.13071 80.3289 6.73604C79.9555 6.34137 79.4969 6.14404 78.9529 6.14404C78.4089 6.14404 77.9449 6.34137 77.5609 6.73604C77.1875 7.12004 77.0009 7.65337 77.0009 8.33604C77.0009 9.01871 77.1875 9.56271 77.5609 9.96804C77.9449 10.3627 78.4089 10.56 78.9529 10.56C79.4969 10.56 79.9555 10.3627 80.3289 9.96804C80.7129 9.57337 80.9049 9.03471 80.9049 8.35204ZM94.7402 3.88804L89.1402 17.056H86.1962L88.2442 12.512L84.6122 3.88804H87.6682L89.7322 9.47204L91.7802 3.88804H94.7402ZM103.186 5.13604C102.983 4.76271 102.69 4.48004 102.306 4.28804C101.932 4.08537 101.49 3.98404 100.978 3.98404C100.092 3.98404 99.3829 4.27737 98.8496 4.86404C98.3163 5.44004 98.0496 6.21337 98.0496 7.18404C98.0496 8.21871 98.3269 9.02937 98.8816 9.61604C99.4469 10.192 100.22 10.48 101.202 10.48C101.874 10.48 102.439 10.3094 102.898 9.96804C103.367 9.62671 103.708 9.13604 103.922 8.49604H100.45V6.48004H106.402V9.02404C106.199 9.70671 105.852 10.3414 105.362 10.928C104.882 11.5147 104.268 11.9894 103.522 12.352C102.775 12.7147 101.932 12.896 100.994 12.896C99.8843 12.896 98.8923 12.656 98.0176 12.176C97.1536 11.6854 96.4763 11.008 95.9856 10.144C95.5056 9.28004 95.2656 8.29337 95.2656 7.18404C95.2656 6.07471 95.5056 5.08804 95.9856 4.22404C96.4763 3.34937 97.1536 2.67204 98.0176 2.19204C98.8816 1.70137 99.8683 1.45604 100.978 1.45604C102.322 1.45604 103.452 1.78137 104.37 2.43204C105.298 3.08271 105.911 3.98404 106.21 5.13604H103.186ZM110.653 5.37604C110.973 4.88537 111.373 4.50137 111.853 4.22404C112.333 3.93604 112.866 3.79204 113.453 3.79204V6.68804H112.701C112.018 6.68804 111.506 6.83737 111.165 7.13604C110.824 7.42404 110.653 7.93604 110.653 8.67204V12.816H107.917V3.88804H110.653V5.37604ZM118.825 12.944C117.95 12.944 117.161 12.7574 116.457 12.384C115.764 12.0107 115.214 11.4774 114.809 10.784C114.414 10.0907 114.217 9.28004 114.217 8.35204C114.217 7.43471 114.42 6.62937 114.825 5.93604C115.23 5.23204 115.785 4.69337 116.489 4.32004C117.193 3.94671 117.982 3.76004 118.857 3.76004C119.732 3.76004 120.521 3.94671 121.225 4.32004C121.929 4.69337 122.484 5.23204 122.889 5.93604C123.294 6.62937 123.497 7.43471 123.497 8.35204C123.497 9.26937 123.289 10.08 122.873 10.784C122.468 11.4774 121.908 12.0107 121.193 12.384C120.489 12.7574 119.7 12.944 118.825 12.944ZM118.825 10.576C119.348 10.576 119.79 10.384 120.153 10C120.526 9.61604 120.713 9.06671 120.713 8.35204C120.713 7.63737 120.532 7.08804 120.169 6.70404C119.817 6.32004 119.38 6.12804 118.857 6.12804C118.324 6.12804 117.881 6.32004 117.529 6.70404C117.177 7.07737 117.001 7.62671 117.001 8.35204C117.001 9.06671 117.172 9.61604 117.513 10C117.865 10.384 118.302 10.576 118.825 10.576ZM133.764 3.88804V12.816H131.028V11.6C130.751 11.9947 130.372 12.3147 129.892 12.56C129.423 12.7947 128.9 12.912 128.324 12.912C127.642 12.912 127.039 12.7627 126.516 12.464C125.994 12.1547 125.588 11.712 125.3 11.136C125.012 10.56 124.868 9.88271 124.868 9.10404V3.88804H127.588V8.73604C127.588 9.33337 127.743 9.79737 128.052 10.128C128.362 10.4587 128.778 10.624 129.3 10.624C129.834 10.624 130.255 10.4587 130.564 10.128C130.874 9.79737 131.028 9.33337 131.028 8.73604V3.88804H133.764ZM141.17 3.79204C142.215 3.79204 143.047 4.13337 143.666 4.81604C144.295 5.48804 144.61 6.41604 144.61 7.60004V12.816H141.89V7.96804C141.89 7.37071 141.735 6.90671 141.426 6.57604C141.116 6.24537 140.7 6.08004 140.178 6.08004C139.655 6.08004 139.239 6.24537 138.93 6.57604C138.62 6.90671 138.466 7.37071 138.466 7.96804V12.816H135.73V3.88804H138.466V5.07204C138.743 4.67737 139.116 4.36804 139.586 4.14404C140.055 3.90937 140.583 3.79204 141.17 3.79204ZM145.967 8.33604C145.967 7.41871 146.138 6.61337 146.479 5.92004C146.831 5.22671 147.306 4.69337 147.903 4.32004C148.5 3.94671 149.167 3.76004 149.903 3.76004C150.49 3.76004 151.023 3.88271 151.503 4.12804C151.994 4.37337 152.378 4.70404 152.655 5.12004V0.97604H155.391V12.816H152.655V11.536C152.399 11.9627 152.031 12.304 151.551 12.56C151.082 12.816 150.532 12.944 149.903 12.944C149.167 12.944 148.5 12.7574 147.903 12.384C147.306 12 146.831 11.4614 146.479 10.768C146.138 10.064 145.967 9.25337 145.967 8.33604ZM152.655 8.35204C152.655 7.66937 152.463 7.13071 152.079 6.73604C151.706 6.34137 151.247 6.14404 150.703 6.14404C150.159 6.14404 149.695 6.34137 149.311 6.73604C148.938 7.12004 148.751 7.65337 148.751 8.33604C148.751 9.01871 148.938 9.56271 149.311 9.96804C149.695 10.3627 150.159 10.56 150.703 10.56C151.247 10.56 151.706 10.3627 152.079 9.96804C152.463 9.57337 152.655 9.03471 152.655 8.35204ZM168.841 1.58404V3.77604H165.865V12.816H163.129V3.77604H160.153V1.58404H168.841ZM178.63 8.20804C178.63 8.46404 178.614 8.73071 178.582 9.00804H172.39C172.433 9.56271 172.609 9.98937 172.918 10.288C173.238 10.576 173.627 10.72 174.086 10.72C174.769 10.72 175.243 10.432 175.51 9.85604H178.422C178.273 10.4427 178.001 10.9707 177.606 11.44C177.222 11.9094 176.737 12.2774 176.15 12.544C175.563 12.8107 174.907 12.944 174.182 12.944C173.307 12.944 172.529 12.7574 171.846 12.384C171.163 12.0107 170.63 11.4774 170.246 10.784C169.862 10.0907 169.67 9.28004 169.67 8.35204C169.67 7.42404 169.857 6.61337 170.23 5.92004C170.614 5.22671 171.147 4.69337 171.83 4.32004C172.513 3.94671 173.297 3.76004 174.182 3.76004C175.046 3.76004 175.814 3.94137 176.486 4.30404C177.158 4.66671 177.681 5.18404 178.054 5.85604C178.438 6.52804 178.63 7.31204 178.63 8.20804ZM175.83 7.48804C175.83 7.01871 175.67 6.64537 175.35 6.36804C175.03 6.09071 174.63 5.95204 174.15 5.95204C173.691 5.95204 173.302 6.08537 172.982 6.35204C172.673 6.61871 172.481 6.99737 172.406 7.48804H175.83ZM179.529 8.35204C179.529 7.42404 179.716 6.61337 180.089 5.92004C180.473 5.22671 181.001 4.69337 181.673 4.32004C182.356 3.94671 183.135 3.76004 184.009 3.76004C185.129 3.76004 186.063 4.05337 186.809 4.64004C187.567 5.22671 188.063 6.05337 188.297 7.12004H185.385C185.14 6.43737 184.665 6.09604 183.961 6.09604C183.46 6.09604 183.06 6.29337 182.761 6.68804C182.463 7.07204 182.313 7.62671 182.313 8.35204C182.313 9.07737 182.463 9.63737 182.761 10.032C183.06 10.416 183.46 10.608 183.961 10.608C184.665 10.608 185.14 10.2667 185.385 9.58404H188.297C188.063 10.6294 187.567 11.4507 186.809 12.048C186.052 12.6454 185.119 12.944 184.009 12.944C183.135 12.944 182.356 12.7574 181.673 12.384C181.001 12.0107 180.473 11.4774 180.089 10.784C179.716 10.0907 179.529 9.28004 179.529 8.35204ZM195.249 3.79204C196.273 3.79204 197.094 4.13337 197.713 4.81604C198.332 5.48804 198.641 6.41604 198.641 7.60004V12.816H195.921V7.96804C195.921 7.37071 195.766 6.90671 195.457 6.57604C195.148 6.24537 194.732 6.08004 194.209 6.08004C193.686 6.08004 193.27 6.24537 192.961 6.57604C192.652 6.90671 192.497 7.37071 192.497 7.96804V12.816H189.761V0.97604H192.497V5.08804C192.774 4.69337 193.153 4.37871 193.633 4.14404C194.113 3.90937 194.652 3.79204 195.249 3.79204ZM205.982 3.79204C207.027 3.79204 207.859 4.13337 208.478 4.81604C209.107 5.48804 209.422 6.41604 209.422 7.60004V12.816H206.702V7.96804C206.702 7.37071 206.547 6.90671 206.238 6.57604C205.929 6.24537 205.513 6.08004 204.99 6.08004C204.467 6.08004 204.051 6.24537 203.742 6.57604C203.433 6.90671 203.278 7.37071 203.278 7.96804V12.816H200.542V3.88804H203.278V5.07204C203.555 4.67737 203.929 4.36804 204.398 4.14404C204.867 3.90937 205.395 3.79204 205.982 3.79204ZM215.387 12.944C214.513 12.944 213.723 12.7574 213.019 12.384C212.326 12.0107 211.777 11.4774 211.371 10.784C210.977 10.0907 210.779 9.28004 210.779 8.35204C210.779 7.43471 210.982 6.62937 211.387 5.93604C211.793 5.23204 212.347 4.69337 213.051 4.32004C213.755 3.94671 214.545 3.76004 215.419 3.76004C216.294 3.76004 217.083 3.94671 217.787 4.32004C218.491 4.69337 219.046 5.23204 219.451 5.93604C219.857 6.62937 220.059 7.43471 220.059 8.35204C220.059 9.26937 219.851 10.08 219.435 10.784C219.03 11.4774 218.47 12.0107 217.755 12.384C217.051 12.7574 216.262 12.944 215.387 12.944ZM215.387 10.576C215.91 10.576 216.353 10.384 216.715 10C217.089 9.61604 217.275 9.06671 217.275 8.35204C217.275 7.63737 217.094 7.08804 216.731 6.70404C216.379 6.32004 215.942 6.12804 215.419 6.12804C214.886 6.12804 214.443 6.32004 214.091 6.70404C213.739 7.07737 213.563 7.62671 213.563 8.35204C213.563 9.06671 213.734 9.61604 214.075 10C214.427 10.384 214.865 10.576 215.387 10.576ZM224.247 0.97604V12.816H221.511V0.97604H224.247ZM230.294 12.944C229.419 12.944 228.63 12.7574 227.926 12.384C227.232 12.0107 226.683 11.4774 226.278 10.784C225.883 10.0907 225.686 9.28004 225.686 8.35204C225.686 7.43471 225.888 6.62937 226.294 5.93604C226.699 5.23204 227.254 4.69337 227.958 4.32004C228.662 3.94671 229.451 3.76004 230.326 3.76004C231.2 3.76004 231.99 3.94671 232.694 4.32004C233.398 4.69337 233.952 5.23204 234.358 5.93604C234.763 6.62937 234.966 7.43471 234.966 8.35204C234.966 9.26937 234.758 10.08 234.342 10.784C233.936 11.4774 233.376 12.0107 232.662 12.384C231.958 12.7574 231.168 12.944 230.294 12.944ZM230.294 10.576C230.816 10.576 231.259 10.384 231.622 10C231.995 9.61604 232.182 9.06671 232.182 8.35204C232.182 7.63737 232 7.08804 231.638 6.70404C231.286 6.32004 230.848 6.12804 230.326 6.12804C229.792 6.12804 229.35 6.32004 228.998 6.70404C228.646 7.07737 228.47 7.62671 228.47 8.35204C228.47 9.06671 228.64 9.61604 228.982 10C229.334 10.384 229.771 10.576 230.294 10.576ZM239.809 3.76004C240.438 3.76004 240.988 3.88804 241.457 4.14404C241.937 4.40004 242.305 4.73604 242.561 5.15204V3.88804H245.297V12.8C245.297 13.6214 245.132 14.3627 244.801 15.024C244.481 15.696 243.985 16.2294 243.313 16.624C242.652 17.0187 241.825 17.216 240.833 17.216C239.51 17.216 238.438 16.9014 237.617 16.272C236.796 15.6534 236.326 14.8107 236.209 13.744H238.913C238.998 14.0854 239.201 14.352 239.521 14.544C239.841 14.7467 240.236 14.848 240.705 14.848C241.27 14.848 241.718 14.6827 242.049 14.352C242.39 14.032 242.561 13.5147 242.561 12.8V11.536C242.294 11.952 241.926 12.2934 241.457 12.56C240.988 12.816 240.438 12.944 239.809 12.944C239.073 12.944 238.406 12.7574 237.809 12.384C237.212 12 236.737 11.4614 236.385 10.768C236.044 10.064 235.873 9.25337 235.873 8.33604C235.873 7.41871 236.044 6.61337 236.385 5.92004C236.737 5.22671 237.212 4.69337 237.809 4.32004C238.406 3.94671 239.073 3.76004 239.809 3.76004ZM242.561 8.35204C242.561 7.66937 242.369 7.13071 241.985 6.73604C241.612 6.34137 241.153 6.14404 240.609 6.14404C240.065 6.14404 239.601 6.34137 239.217 6.73604C238.844 7.12004 238.657 7.65337 238.657 8.33604C238.657 9.01871 238.844 9.56271 239.217 9.96804C239.601 10.3627 240.065 10.56 240.609 10.56C241.153 10.56 241.612 10.3627 241.985 9.96804C242.369 9.57337 242.561 9.03471 242.561 8.35204ZM248.652 2.96004C248.172 2.96004 247.778 2.82137 247.468 2.54404C247.17 2.25604 247.02 1.90404 247.02 1.48804C247.02 1.06137 247.17 0.709373 247.468 0.432039C247.778 0.144039 248.172 3.91006e-05 248.652 3.91006e-05C249.122 3.91006e-05 249.506 0.144039 249.804 0.432039C250.114 0.709373 250.268 1.06137 250.268 1.48804C250.268 1.90404 250.114 2.25604 249.804 2.54404C249.506 2.82137 249.122 2.96004 248.652 2.96004ZM250.012 3.88804V12.816H247.276V3.88804H250.012ZM260.411 8.20804C260.411 8.46404 260.395 8.73071 260.363 9.00804H254.171C254.214 9.56271 254.39 9.98937 254.699 10.288C255.019 10.576 255.409 10.72 255.867 10.72C256.55 10.72 257.025 10.432 257.291 9.85604H260.203C260.054 10.4427 259.782 10.9707 259.387 11.44C259.003 11.9094 258.518 12.2774 257.931 12.544C257.345 12.8107 256.689 12.944 255.963 12.944C255.089 12.944 254.31 12.7574 253.627 12.384C252.945 12.0107 252.411 11.4774 252.027 10.784C251.643 10.0907 251.451 9.28004 251.451 8.35204C251.451 7.42404 251.638 6.61337 252.011 5.92004C252.395 5.22671 252.929 4.69337 253.611 4.32004C254.294 3.94671 255.078 3.76004 255.963 3.76004C256.827 3.76004 257.595 3.94137 258.267 4.30404C258.939 4.66671 259.462 5.18404 259.835 5.85604C260.219 6.52804 260.411 7.31204 260.411 8.20804ZM257.611 7.48804C257.611 7.01871 257.451 6.64537 257.131 6.36804C256.811 6.09071 256.411 5.95204 255.931 5.95204C255.473 5.95204 255.083 6.08537 254.763 6.35204C254.454 6.61871 254.262 6.99737 254.187 7.48804H257.611ZM265.487 12.944C264.708 12.944 264.015 12.8107 263.407 12.544C262.799 12.2774 262.319 11.9147 261.967 11.456C261.615 10.9867 261.417 10.464 261.375 9.88804H264.079C264.111 10.1974 264.255 10.448 264.511 10.64C264.767 10.832 265.081 10.928 265.455 10.928C265.796 10.928 266.057 10.864 266.239 10.736C266.431 10.5974 266.527 10.4214 266.527 10.208C266.527 9.95204 266.393 9.76537 266.127 9.64804C265.86 9.52004 265.428 9.38137 264.831 9.23204C264.191 9.08271 263.657 8.92804 263.231 8.76804C262.804 8.59737 262.436 8.33604 262.127 7.98404C261.817 7.62137 261.663 7.13604 261.663 6.52804C261.663 6.01604 261.801 5.55204 262.079 5.13604C262.367 4.70937 262.783 4.37337 263.327 4.12804C263.881 3.88271 264.537 3.76004 265.295 3.76004C266.415 3.76004 267.295 4.03737 267.935 4.59204C268.585 5.14671 268.959 5.88271 269.055 6.80004H266.527C266.484 6.49071 266.345 6.24537 266.111 6.06404C265.887 5.88271 265.588 5.79204 265.215 5.79204C264.895 5.79204 264.649 5.85604 264.479 5.98404C264.308 6.10137 264.223 6.26671 264.223 6.48004C264.223 6.73604 264.356 6.92804 264.623 7.05604C264.9 7.18404 265.327 7.31204 265.903 7.44004C266.564 7.61071 267.103 7.78137 267.519 7.95204C267.935 8.11204 268.297 8.37871 268.607 8.75204C268.927 9.11471 269.092 9.60537 269.103 10.224C269.103 10.7467 268.953 11.216 268.655 11.632C268.367 12.0374 267.945 12.3574 267.391 12.592C266.847 12.8267 266.212 12.944 265.487 12.944Z" fill="#0C0C9D"/>
</svg>
