<svg width="146" height="39" viewBox="0 0 146 39" fill="none" xmlns="http://www.w3.org/2000/svg">
<path d="M-9.98378e-07 14.76C-9.98378e-07 13.0267 0.319999 11.3333 0.959999 9.68001C1.62667 8.00001 2.58667 6.48001 3.84 5.12001C5.09333 3.76001 6.61333 2.68001 8.4 1.88001C10.2133 1.05334 12.2533 0.64001 14.52 0.64001C17.24 0.64001 19.6133 1.21334 21.64 2.36001C23.6667 3.48001 25.1733 4.97335 26.16 6.84001L20.2 11.08C19.8533 10.1467 19.3467 9.42668 18.68 8.92001C18.04 8.41334 17.3333 8.06668 16.56 7.88001C15.8133 7.66668 15.08 7.56001 14.36 7.56001C13.24 7.56001 12.2667 7.78668 11.44 8.24001C10.64 8.66668 9.97333 9.24001 9.44 9.96001C8.93333 10.68 8.54667 11.48 8.28 12.36C8.04 13.24 7.92 14.12 7.92 15C7.92 15.9867 8.06667 16.9333 8.36 17.84C8.65333 18.7467 9.08 19.56 9.64 20.28C10.2 20.9733 10.88 21.52 11.68 21.92C12.5067 22.32 13.4267 22.52 14.44 22.52C15.16 22.52 15.8933 22.4133 16.64 22.2C17.3867 21.96 18.0667 21.5867 18.68 21.08C19.2933 20.5733 19.76 19.8933 20.08 19.04L26.44 22.84C25.88 24.2267 24.9467 25.4133 23.64 26.4C22.3333 27.3867 20.8533 28.1467 19.2 28.68C17.5467 29.1867 15.9067 29.44 14.28 29.44C12.1733 29.44 10.24 29.0267 8.48 28.2C6.74667 27.3467 5.24 26.2267 3.96 24.84C2.70667 23.4267 1.73333 21.8533 1.04 20.12C0.346666 18.36 -9.98378e-07 16.5733 -9.98378e-07 14.76ZM38.4609 29.6C36.5943 29.6 34.9409 29.3067 33.5009 28.72C32.0609 28.1333 30.8476 27.3333 29.8609 26.32C28.9009 25.28 28.1676 24.1067 27.6609 22.8C27.1809 21.4933 26.9409 20.12 26.9409 18.68C26.9409 17.24 27.1809 15.8667 27.6609 14.56C28.1676 13.2267 28.9009 12.0533 29.8609 11.04C30.8476 10.0267 32.0609 9.22668 33.5009 8.64001C34.9409 8.05335 36.5943 7.76001 38.4609 7.76001C40.3543 7.76001 42.0076 8.05335 43.4209 8.64001C44.8609 9.22668 46.0609 10.0267 47.0209 11.04C48.0076 12.0533 48.7409 13.2267 49.2209 14.56C49.7276 15.8667 49.9809 17.24 49.9809 18.68C49.9809 20.12 49.7276 21.4933 49.2209 22.8C48.7409 24.1067 48.0076 25.28 47.0209 26.32C46.0609 27.3333 44.8609 28.1333 43.4209 28.72C42.0076 29.3067 40.3543 29.6 38.4609 29.6ZM34.7409 18.68C34.7409 19.6133 34.9009 20.4267 35.2209 21.12C35.5409 21.7867 35.9809 22.3067 36.5409 22.68C37.1009 23.0267 37.7409 23.2 38.4609 23.2C39.1809 23.2 39.8209 23.0267 40.3809 22.68C40.9409 22.3067 41.3809 21.7867 41.7009 21.12C42.0209 20.4267 42.1809 19.6133 42.1809 18.68C42.1809 17.7467 42.0209 16.9467 41.7009 16.28C41.3809 15.5867 40.9409 15.0667 40.3809 14.72C39.8209 14.3467 39.1809 14.16 38.4609 14.16C37.7409 14.16 37.1009 14.3467 36.5409 14.72C35.9809 15.0667 35.5409 15.5867 35.2209 16.28C34.9009 16.9467 34.7409 17.7467 34.7409 18.68ZM51.1512 18.64C51.1512 16.56 51.5379 14.7067 52.3112 13.08C53.1112 11.4267 54.2046 10.1333 55.5913 9.20001C56.9779 8.24001 58.5646 7.76001 60.3512 7.76001C61.7113 7.76001 62.9646 8.08001 64.1113 8.72001C65.2579 9.33334 66.1246 10.1867 66.7113 11.28V1.14441e-05H74.3113V20.8C74.3113 21.52 74.4179 22.0267 74.6313 22.32C74.8446 22.5867 75.2179 22.7467 75.7513 22.8V29.2C74.4446 29.4667 73.3779 29.6 72.5512 29.6C71.2713 29.6 70.2579 29.36 69.5113 28.88C68.7646 28.4 68.2846 27.6667 68.0713 26.68L67.9113 25.92C67.1913 27.2 66.2179 28.1333 64.9913 28.72C63.7646 29.3067 62.4579 29.6 61.0712 29.6C59.6313 29.6 58.2979 29.3333 57.0713 28.8C55.8712 28.2667 54.8179 27.52 53.9112 26.56C53.0312 25.5733 52.3512 24.4133 51.8712 23.08C51.3912 21.72 51.1512 20.24 51.1512 18.64ZM66.7513 21.04V17.28C66.5113 16.6667 66.1779 16.1333 65.7513 15.68C65.3513 15.2 64.8979 14.8267 64.3913 14.56C63.8846 14.2933 63.3646 14.16 62.8312 14.16C62.2713 14.16 61.7512 14.28 61.2712 14.52C60.8179 14.76 60.4179 15.0933 60.0713 15.52C59.7246 15.9467 59.4579 16.44 59.2712 17C59.0846 17.56 58.9912 18.16 58.9912 18.8C58.9912 19.4667 59.0846 20.0667 59.2712 20.6C59.4846 21.1333 59.7779 21.6 60.1512 22C60.5246 22.3733 60.9646 22.6667 61.4713 22.88C61.9779 23.0933 62.5379 23.2 63.1513 23.2C63.5246 23.2 63.8713 23.16 64.1913 23.08C64.5113 22.9733 64.8179 22.84 65.1113 22.68C65.4046 22.4933 65.6846 22.2667 65.9513 22C66.2446 21.7067 66.5113 21.3867 66.7513 21.04ZM78.4728 29.2V8.16001H86.0728V29.2H78.4728ZM78.4728 6.40001V1.14441e-05H86.0728V6.40001H78.4728ZM110.678 29.2H103.078V17.36C103.078 16.32 102.838 15.5733 102.358 15.12C101.905 14.64 101.371 14.4 100.758 14.4C100.331 14.4 99.8781 14.5333 99.3981 14.8C98.9181 15.04 98.4781 15.3867 98.0781 15.84C97.6781 16.2933 97.3581 16.8133 97.1181 17.4V29.2H89.5181V8.16001H96.3581V11.28C96.8648 10.5067 97.5048 9.86668 98.2781 9.36001C99.0515 8.82668 99.9448 8.42668 100.958 8.16001C101.971 7.89334 103.078 7.76001 104.278 7.76001C105.718 7.76001 106.865 8.01334 107.718 8.52001C108.571 9.02668 109.211 9.68001 109.638 10.48C110.065 11.28 110.345 12.12 110.478 13C110.611 13.8533 110.678 14.64 110.678 15.36V29.2ZM122.042 29.2C120.682 29.2 119.429 28.9333 118.282 28.4C117.162 27.8667 116.202 27.12 115.402 26.16C114.602 25.2 113.975 24.08 113.522 22.8C113.095 21.52 112.882 20.1333 112.882 18.64C112.882 17.0667 113.122 15.6267 113.602 14.32C114.082 12.9867 114.749 11.8267 115.602 10.84C116.482 9.85334 117.522 9.09334 118.722 8.56001C119.922 8.02668 121.242 7.76001 122.682 7.76001C124.175 7.76001 125.495 8.06668 126.642 8.68001C127.815 9.26668 128.735 10.1333 129.402 11.28V8.16001H136.002V27.28C136.002 29.4667 135.469 31.3733 134.402 33C133.335 34.6267 131.842 35.88 129.922 36.76C128.002 37.6667 125.762 38.12 123.202 38.12C120.989 38.12 119.042 37.7733 117.362 37.08C115.709 36.3867 114.242 35.3867 112.962 34.08L116.962 29.92C117.735 30.64 118.655 31.24 119.722 31.72C120.815 32.2267 121.975 32.48 123.202 32.48C124.135 32.48 124.989 32.3067 125.762 31.96C126.562 31.6133 127.202 31.0533 127.682 30.28C128.162 29.5333 128.402 28.5333 128.402 27.28V25.92C127.815 27.0133 126.935 27.84 125.762 28.4C124.615 28.9333 123.375 29.2 122.042 29.2ZM124.762 23.2C125.135 23.2 125.482 23.16 125.802 23.08C126.149 22.9733 126.469 22.84 126.762 22.68C127.055 22.4933 127.335 22.2667 127.602 22C127.895 21.7067 128.162 21.3867 128.402 21.04V17.28C128.162 16.64 127.829 16.0933 127.402 15.64C126.975 15.16 126.509 14.8 126.002 14.56C125.495 14.2933 124.975 14.16 124.442 14.16C123.909 14.16 123.402 14.28 122.922 14.52C122.469 14.76 122.069 15.1067 121.722 15.56C121.375 15.9867 121.109 16.48 120.922 17.04C120.735 17.6 120.642 18.2 120.642 18.84C120.642 19.48 120.735 20.0667 120.922 20.6C121.135 21.1333 121.429 21.6 121.802 22C122.175 22.3733 122.615 22.6667 123.122 22.88C123.629 23.0933 124.175 23.2 124.762 23.2ZM139.54 29.2V21.84H145.7V29.2H139.54Z" fill="#9A9A9A"/>
</svg>
