<svg width="33" height="39" viewBox="0 0 33 39" fill="none" xmlns="http://www.w3.org/2000/svg">
<path d="M9.91914 9.26483L10.0893 9.41354L25.2934 24.6158C25.4927 24.8149 25.6422 25.0581 25.7299 25.3258C25.8175 25.5935 25.8408 25.8781 25.7979 26.1565C25.755 26.4349 25.647 26.6992 25.4828 26.928C25.3185 27.1569 25.1027 27.3438 24.8527 27.4735L24.6448 27.5631L6.03838 34.4198C2.54105 35.7098 -0.864909 32.4221 0.19755 28.9302L0.287133 28.6686L7.14205 10.0621C7.23268 9.81565 7.37637 9.59211 7.56297 9.40733C7.74957 9.22255 7.97451 9.08105 8.22186 8.99285C8.46921 8.90464 8.73292 8.87189 8.99433 8.89691C9.25575 8.92192 9.50846 9.0041 9.73459 9.13762L9.91914 9.26483ZM26.0997 17.0478C27.7319 17.1338 29.9697 17.4778 31.9154 18.646C32.3099 18.8799 32.5997 19.2561 32.7251 19.6971C32.8505 20.1382 32.802 20.6106 32.5896 21.017C32.3772 21.4234 32.0171 21.7329 31.5834 21.8818C31.1496 22.0307 30.6753 22.0076 30.2581 21.8172L30.0718 21.7187C28.8499 20.9841 27.2876 20.6975 25.9116 20.6258C25.3446 20.5945 24.7762 20.5968 24.2095 20.633L23.6433 20.6885C23.1759 20.7488 22.7036 20.6226 22.3286 20.3371C21.9537 20.0516 21.7063 19.6299 21.6401 19.1633C21.5739 18.6967 21.6942 18.2228 21.9749 17.8443C22.2556 17.4658 22.6741 17.2131 23.1398 17.141C24.1211 17.0144 25.1123 16.9826 26.0997 17.046M29.7278 12.0545C30.1843 12.0554 30.6232 12.2306 30.955 12.5442C31.2867 12.8578 31.4862 13.2863 31.5127 13.742C31.5392 14.1977 31.3908 14.6464 31.0977 14.9964C30.8046 15.3464 30.389 15.5713 29.9356 15.6252L29.7278 15.6378H28.4593C28.0028 15.6368 27.5639 15.4617 27.2322 15.148C26.9004 14.8344 26.7009 14.406 26.6744 13.9502C26.6479 13.4945 26.7963 13.0458 27.0894 12.6958C27.3825 12.3458 27.7982 12.1209 28.2515 12.067L28.4593 12.0545H29.7278ZM24.0267 10.6802C24.3352 10.9888 24.5205 11.3992 24.5479 11.8346C24.5753 12.2701 24.4428 12.7005 24.1754 13.0452L24.0267 13.2137L22.1258 15.1146C21.8033 15.436 21.3707 15.6225 20.9157 15.6364C20.4607 15.6503 20.0175 15.4905 19.6761 15.1894C19.3346 14.8884 19.1206 14.4686 19.0774 14.0155C19.0343 13.5623 19.1652 13.1097 19.4436 12.7496L19.5923 12.5812L21.4915 10.682C21.6579 10.5155 21.8555 10.3833 22.073 10.2931C22.2905 10.203 22.5237 10.1566 22.7591 10.1566C22.9946 10.1566 23.2277 10.203 23.4452 10.2931C23.6627 10.3833 23.8603 10.5137 24.0267 10.6802ZM19.3917 1.24712C20.1943 3.6587 19.7643 6.29962 19.2627 8.14504C18.9624 9.29594 18.5483 10.4141 18.0264 11.4829C17.8143 11.9082 17.4418 12.2318 16.9911 12.3825C16.5403 12.5332 16.0482 12.4986 15.6229 12.2865C15.1976 12.0743 14.874 11.7019 14.7233 11.2511C14.5726 10.8004 14.6072 10.3082 14.8193 9.88295C15.2362 9.02454 15.5663 8.12664 15.8048 7.20262C16.2115 5.71195 16.4157 4.09408 16.1022 2.76824L15.9929 2.38124C15.9148 2.15718 15.882 1.91983 15.8964 1.68299C15.9108 1.44614 15.9721 1.21451 16.0767 1.00155C16.1814 0.788587 16.3273 0.59853 16.506 0.442413C16.6847 0.286296 16.8926 0.167228 17.1177 0.0921218C17.3427 0.0170153 17.5805 -0.0126336 17.8171 0.00489609C18.0538 0.0224258 18.2846 0.0867848 18.4961 0.194237C18.7077 0.30169 18.8958 0.450095 19.0495 0.630838C19.2033 0.811581 19.3196 1.02106 19.3917 1.24712ZM29.0936 5.6152C29.4294 5.95119 29.6181 6.40683 29.6181 6.88191C29.6181 7.357 29.4294 7.81263 29.0936 8.14862L27.8268 9.41533C27.6616 9.58645 27.4639 9.72294 27.2453 9.81684C27.0267 9.91074 26.7916 9.96017 26.5537 9.96224C26.3158 9.9643 26.0799 9.91897 25.8597 9.82888C25.6395 9.7388 25.4394 9.60576 25.2712 9.43754C25.103 9.26931 24.97 9.06927 24.8799 8.84908C24.7898 8.62889 24.7445 8.39296 24.7465 8.15507C24.7486 7.91717 24.798 7.68207 24.8919 7.46348C24.9858 7.24489 25.1223 7.04719 25.2934 6.88191L26.5601 5.6152C26.8961 5.27932 27.3518 5.09063 27.8268 5.09063C28.3019 5.09063 28.7576 5.27932 29.0936 5.6152Z" fill="#439642"/>
</svg>
