<svg width="28" height="28" viewBox="0 0 28 28" fill="none" xmlns="http://www.w3.org/2000/svg">
<path d="M7.39062 12.9365C7.40406 12.936 7.41812 12.9386 7.43066 12.9434C7.44306 12.9482 7.45429 12.9556 7.46387 12.9648C7.47354 12.9742 7.48108 12.9857 7.48633 12.998C7.49152 13.0103 7.49414 13.0238 7.49414 13.0371C7.4941 13.0504 7.49154 13.0639 7.48633 13.0762C7.48111 13.0883 7.47338 13.0992 7.46387 13.1084C7.45432 13.1176 7.44301 13.1251 7.43066 13.1299C7.41811 13.1347 7.40406 13.1372 7.39062 13.1367C7.36483 13.1357 7.34019 13.125 7.32227 13.1064C7.30437 13.0879 7.295 13.0629 7.29492 13.0371C7.29492 13.0114 7.30448 12.9864 7.32227 12.9678C7.34019 12.9492 7.36482 12.9375 7.39062 12.9365ZM14.3877 12.9365C14.4011 12.936 14.4152 12.9386 14.4277 12.9434C14.4401 12.9482 14.4513 12.9556 14.4609 12.9648C14.4706 12.9742 14.4781 12.9857 14.4834 12.998C14.4886 13.0104 14.4912 13.0237 14.4912 13.0371C14.4912 13.0504 14.4886 13.0639 14.4834 13.0762C14.4782 13.0884 14.4705 13.0992 14.4609 13.1084C14.4514 13.1176 14.4401 13.1251 14.4277 13.1299C14.4152 13.1347 14.4011 13.1372 14.3877 13.1367C14.3619 13.1357 14.3372 13.125 14.3193 13.1064C14.3015 13.0879 14.2921 13.0629 14.292 13.0371C14.292 13.0114 14.3016 12.9864 14.3193 12.9678C14.3372 12.9492 14.3619 12.9375 14.3877 12.9365ZM21.3838 12.9365C21.3971 12.936 21.4104 12.9386 21.4229 12.9434C21.4354 12.9482 21.4474 12.9555 21.457 12.9648C21.4667 12.9741 21.4743 12.9857 21.4795 12.998C21.4847 13.0103 21.4873 13.0238 21.4873 13.0371C21.4873 13.0504 21.4847 13.0639 21.4795 13.0762C21.4743 13.0883 21.4665 13.0992 21.457 13.1084C21.4474 13.1177 21.4354 13.1251 21.4229 13.1299C21.4104 13.1346 21.3972 13.1372 21.3838 13.1367C21.358 13.1358 21.3334 13.125 21.3154 13.1064C21.2975 13.0879 21.2872 13.0629 21.2871 13.0371C21.2871 13.0113 21.2976 12.9864 21.3154 12.9678C21.3334 12.9491 21.3579 12.9375 21.3838 12.9365Z" fill="white" stroke="white" stroke-width="4"/>
</svg>
